# xmcd CD database file
# Generated: Mon Dec 3 16:55:23 2001 by KSCD
# 
# Track frame offsets:
#       150
#       10575
#       20875
#       28987
#       39650
#       51637
#       74262
#       83072
#       95807
#       106952
#       119075
#       130417
#
# Disc length: 1901 seconds
#
# Revision: 1
# Processed by: cddbd v1.4PL0 Copyright (c) Steve Scherf et al.
# Submitted via: Kscd 1.3.2
#
DISCID=b0076b0c
DTITLE=Ergo - Dama s ruzi
DYEAR=1900
DGENRE=
TTITLE0=Dama s ruzi
TTITLE1=Farizej
TTITLE2=Hodiny na orloji
TTITLE3=Mariana
TTITLE4=Eheu quam
TTITLE5=Kantilena
TTITLE6=Kuze
TTITLE7=Ex puro forite
TTITLE8=Hostina
TTITLE9=Patria Bona
TTITLE10=Slepi ucednici
TTITLE11=Magna domus
EXTD=
EXTT0=
EXTT1=
EXTT2=
EXTT3=
EXTT4=
EXTT5=
EXTT6=
EXTT7=
EXTT8=
EXTT9=
EXTT10=
EXTT11=
PLAYORDER=
